<svg version="1.1" id="Layer_1" xmlns:x="ns_extend;" xmlns:i="ns_ai;" xmlns:graph="ns_graphs;" xmlns="http://www.w3.org/2000/svg" xmlns:xlink="http://www.w3.org/1999/xlink" x="0px" y="0px" viewBox="0 0 509.6 72" style="enable-background:new 0 0 509.6 72;" xml:space="preserve">
 <style type="text/css">
  .st0{fill-rule:evenodd;clip-rule:evenodd;fill:#111111;}
	.st1{fill:#111111;}
	.st2{fill-rule:evenodd;clip-rule:evenodd;fill:#009FDF;}
 </style>
 <metadata>
  <sfw xmlns="ns_sfw;">
   <slices>
   </slices>
   <sliceSourceBounds bottomLeftOrigin="true" height="72" width="509.6" x="-218.7" y="-30.9">
   </sliceSourceBounds>
  </sfw>
 </metadata>
 <desc>
  Created with Sketch.
 </desc>
 <g id="Logo---white-Copy">
  <polygon id="Fill-3" class="st0" points="257.6,1.4 257.6,15.5 220.9,15.5 220.9,27.5 255.5,27.5 255.5,42.4 220.9,42.4 
		220.9,56.5 257.6,56.5 257.6,70.6 204,70.6 204,1.4 	">
  </polygon>
  <g id="Clip-6">
  </g>
  <path id="Fill-5" class="st0" d="M316.2,22.6c-1.4-4.9-6.4-9.2-15.5-9.2c-9.9,0-17.6,7.8-17.6,21.9c0,14.8,7.1,22.6,18.4,22.6
		c7.8,0,15.5-2.8,15.5-12v-0.7H300V31.8h33.2v38.8h-12.7l-0.7-7.8c-4.2,6.4-11.3,9.2-21.2,9.2c-20.5,0-33.2-14.1-33.2-36
		s14.1-36,35.3-36c15.5,0,28.2,7.8,31.1,22.6H316.2z">
  </path>
  <g id="Clip-9">
  </g>
  <polygon id="Fill-8" class="st0" points="345.2,70.6 361.4,70.6 361.4,1.4 345.2,1.4 	">
  </polygon>
  <g>
   <path class="st1" d="M155.3,1.4h-22.6v69.2h22.6c23.3,0,40.9-7.8,40.9-34.6C196.2,9.2,177.9,1.4,155.3,1.4z M156,56.5h-7.1V14.8
			v-0.7h7.1c12.7,0,23.3,2.8,23.3,21.2C179.3,53.6,168,56.5,156,56.5z">
   </path>
   <path class="st1" d="M432,22.6c0-16.9-13.4-21.2-31.8-21.2h-26.8v69.2h16.2V44.5h12l14.8,26.1h19.1l-16.9-28.9
			C426.4,38.8,432,33.2,432,22.6z M400.2,30.4h-10.6V14.8h10.6c7.8,0,13.4,1.4,13.4,7.8C413.6,28.9,408,30.4,400.2,30.4z">
   </path>
   <path class="st1" d="M473.6,0c-21.2,0-36,14.1-36,36c0,21.9,14.8,36,36,36s36-14.1,36-36C509.6,14.1,494.8,0,473.6,0z M474.4,58.6
			c-9.9,0-18.4-7.8-18.4-22.6c0-14.8,8.5-22.6,18.4-22.6s18.4,7.8,18.4,22.6C492.7,50.8,484.2,58.6,474.4,58.6z">
   </path>
  </g>
  <polygon id="Fill-12" class="st2" points="0,28.9 115.8,28.9 115.8,1.4 0,1.4 	">
  </polygon>
  <polygon id="Fill-13" class="st2" points="0,70.6 115.8,70.6 115.8,42.4 0,42.4 	">
  </polygon>
 </g>
</svg>