<svg width="106" height="20" viewBox="0 0 106 20" fill="none" xmlns="http://www.w3.org/2000/svg">
<path d="M17.0052 18.7061V19.3183C14.5564 19.3183 12.0397 19.5904 9.52289 19.6584V17.2096C8.50258 18.9102 7.41425 19.6584 5.44165 19.6584C1.83656 19.6584 0 16.3254 0 13.0604C0 9.72737 1.76854 6.25832 5.50967 6.25832C7.07415 6.25832 8.29852 7.00654 9.25081 8.23091V1.42885H7.07415V0.884686C9.93101 0.884686 12.7879 0.544583 15.6447 0.476562V18.7061H17.0052ZM9.18279 10.8837C9.18279 9.04716 8.5706 8.02685 7.68633 8.02685C6.66602 8.02685 6.73404 9.25122 6.73404 10.8837V15.033C6.73404 17.5497 7.07415 18.1619 7.75435 18.1619C8.63862 18.1619 9.25081 17.0056 9.25081 15.033V10.8837H9.18279Z" fill="#FCFCFC"/>
<path d="M17.6836 19.3849V18.7728H19.18V7.34529H17.7516V6.73311C20.4044 6.73311 23.0572 6.46102 25.71 6.393V18.7047H27.1385V19.3169L17.6836 19.3849ZM25.9141 2.85593C25.9141 4.82853 24.0095 5.44071 22.309 5.44071C20.6085 5.44071 18.7039 4.82853 18.7039 2.85593C18.7039 0.74729 20.5405 0.203125 22.309 0.203125C24.0775 0.203125 25.9141 0.74729 25.9141 2.85593Z" fill="#FCFCFC"/>
<path d="M28.0234 7.34682V6.73463C30.6082 6.73463 33.193 6.46255 35.7098 6.39453V9.04734H35.7778C36.6621 7.41484 38.1585 6.39453 40.0631 6.39453C41.8316 6.39453 43.5321 7.41484 43.5321 9.38744C43.5321 11.224 42.2397 12.5164 40.4032 12.5164C38.6347 12.5164 37.4103 11.36 37.4103 9.5915C37.4103 9.18338 37.4783 8.77525 37.5463 8.36713C37.1382 7.68692 36.322 9.2514 36.2539 9.45546C35.9138 10.4758 35.9819 11.4281 35.9819 12.5164V18.6382H37.8864V19.2504H28.0234V18.6382H29.4519V7.34682H28.0234Z" fill="#FCFCFC"/>
<path d="M50.609 13.8745V14.9628C50.609 17.0715 51.0172 18.772 53.4659 18.772C55.4385 18.772 57.207 17.5476 58.3634 15.9831L58.8395 16.3233C57.207 18.636 55.0304 19.7243 52.1055 19.7243C50.541 19.7243 49.1806 19.5882 47.7522 18.9761C45.5075 18.0238 43.875 16.1192 43.875 12.9902C43.875 8.70494 47.4121 6.32422 51.4253 6.32422C56.0507 6.32422 59.2477 9.11306 59.1796 13.8745H50.609ZM52.8537 13.2623V9.58921C52.8537 8.63692 53.0578 7.00442 51.6294 7.00442C50.405 7.00442 50.541 8.70494 50.541 9.58921V13.2623H52.8537Z" fill="#FCFCFC"/>
<path d="M75.4358 15.7791C74.1434 18.772 71.4906 19.7243 68.3617 19.7243C63.5322 19.7243 60.1992 17.2075 60.1992 13.0583C60.1992 8.43286 64.5525 6.32422 68.6338 6.32422C73.8033 6.32422 75.2998 8.5689 75.2998 10.6775C75.2998 12.4461 74.0754 13.6704 72.3069 13.6704C70.7424 13.6704 69.45 12.5141 69.45 10.9496C69.45 9.45317 70.1983 8.77296 71.4226 8.2288C71.5587 8.16078 71.8307 8.02473 71.8307 7.88869C71.8307 7.34453 70.4703 7.14047 70.1302 7.14047C67.8855 7.14047 66.7972 7.68463 67.1373 14.3507C67.2734 16.4593 67.4774 18.704 70.1983 18.704C72.3749 18.704 73.8714 17.3436 74.7556 15.439L75.4358 15.7791Z" fill="#FCFCFC"/>
<path d="M84.2764 2.03906V6.73249H87.2693V7.34467H84.2764V16.7315C84.2764 17.3437 84.2084 18.0919 85.0247 18.0919C86.3851 18.0919 86.9292 15.9153 87.0653 14.895H87.6775C87.4054 18.6361 85.2287 19.7244 81.8277 19.7244C78.6307 19.7244 77.8145 18.8402 77.8145 15.3711V7.34467H76.25V6.73249C79.583 6.73249 82.1678 4.75989 83.8683 2.03906H84.2764Z" fill="#FCFCFC"/>
<path d="M97.6115 8.70655C97.6115 7.48218 97.3395 7.07406 96.1151 7.07406C95.6389 7.07406 95.0268 7.14208 95.0268 7.34614C95.0268 7.68625 96.0471 8.02635 96.0471 9.1827C96.0471 11.0193 93.9384 11.2913 92.51 11.2913C91.2176 11.2913 89.5851 10.7472 89.5851 9.1827C89.5851 8.02635 90.2653 6.25781 96.2511 6.25781C97.6115 6.25781 99.7882 6.46187 101.081 6.73396C102.849 7.14208 103.937 7.89031 103.937 9.93093V17.0731C103.937 17.3452 104.074 17.6853 104.414 17.6853C104.89 17.6853 105.162 17.3452 105.502 17.0051V18.0934C104.482 19.2498 102.849 19.7939 101.353 19.7939C99.8562 19.7939 98.6319 19.4538 97.9516 17.9574C96.5912 19.4538 94.6867 19.7939 92.7821 19.7939C90.7415 19.7939 88.6328 18.9096 88.6328 16.5289C88.6328 14.7604 89.5851 12.9238 93.3262 12.4477C94.3466 12.3116 95.4349 12.2436 96.4552 12.2436H97.7476V8.70655H97.6115ZM97.6115 12.8558H96.6592C95.0268 12.8558 95.2308 14.7604 95.2308 15.9848C95.2308 16.733 95.1628 18.2294 96.2511 18.2294C97.7476 18.2294 97.6115 16.5289 97.6115 15.5766V12.8558Z" fill="#FCFCFC"/>
</svg>
