<svg width="211" height="40" viewBox="0 0 211 40" fill="none" xmlns="http://www.w3.org/2000/svg">
<path d="M34.0103 37.002V38.2264C29.1128 38.2264 24.0793 38.7706 19.0458 38.9066V34.0091C17.0052 37.4102 14.8285 38.9066 10.8833 38.9066C3.67311 38.9066 0 32.2406 0 25.7106C0 19.0446 3.53707 12.1065 11.0193 12.1065C14.1483 12.1065 16.597 13.6029 18.5016 16.0517V2.44755H14.1483V1.35922C19.862 1.35922 25.5758 0.67901 31.2895 0.542969V37.002H34.0103ZM18.3656 21.3573C18.3656 17.6842 17.1412 15.6435 15.3727 15.6435C13.332 15.6435 13.4681 18.0923 13.4681 21.3573V29.6558C13.4681 34.6893 14.1483 35.9137 15.5087 35.9137C17.2772 35.9137 18.5016 33.601 18.5016 29.6558V21.3573H18.3656Z" fill="#0D1729"/>
<path d="M35.3711 38.3636V37.1393H38.364V14.2843H35.5071V13.06C40.8127 13.06 46.1184 12.5158 51.424 12.3798V37.0032H54.2808V38.2276L35.3711 38.3636ZM51.8321 5.30561C51.8321 9.25081 48.0229 10.4752 44.6219 10.4752C41.2209 10.4752 37.4117 9.25081 37.4117 5.30561C37.4117 1.08833 41.0848 0 44.6219 0C48.159 0 51.8321 1.08833 51.8321 5.30561Z" fill="#0D1729"/>
<path d="M56.0508 14.2835V13.0591C61.2203 13.0591 66.3899 12.5149 71.4234 12.3789V17.6845H71.5595C73.328 14.4195 76.3209 12.3789 80.1301 12.3789C83.6672 12.3789 87.0682 14.4195 87.0682 18.3647C87.0682 22.0378 84.4834 24.6226 80.8103 24.6226C77.2732 24.6226 74.8245 22.3099 74.8245 18.7728C74.8245 17.9566 74.9605 17.1403 75.0966 16.3241C74.2803 14.9637 72.6478 18.0926 72.5118 18.5008C71.8316 20.5414 71.9676 22.446 71.9676 24.6226V36.8663H75.7768V38.0907H56.0508V36.8663H58.9077V14.2835H56.0508Z" fill="#0D1729"/>
<path d="M101.214 27.3467V29.5233C101.214 33.7406 102.03 37.1416 106.928 37.1416C110.873 37.1416 114.41 34.6929 116.723 31.564L117.675 32.2442C114.41 36.8696 110.057 39.0462 104.207 39.0462C101.078 39.0462 98.3573 38.7741 95.5005 37.5498C91.0111 35.6452 87.7461 31.836 87.7461 25.5781C87.7461 17.0075 94.8202 12.2461 102.847 12.2461C112.097 12.2461 118.491 17.8238 118.355 27.3467H101.214ZM105.704 26.1223V18.7761C105.704 16.8715 106.112 13.6065 103.255 13.6065C100.806 13.6065 101.078 17.0075 101.078 18.7761V26.1223H105.704Z" fill="#0D1729"/>
<path d="M150.872 31.1558C148.287 37.1416 142.981 39.0462 136.723 39.0462C127.064 39.0462 120.398 34.0127 120.398 25.7142C120.398 16.4634 129.105 12.2461 137.268 12.2461C147.607 12.2461 150.6 16.7355 150.6 20.9527C150.6 24.4898 148.151 26.9385 144.614 26.9385C141.485 26.9385 138.9 24.6258 138.9 21.4969C138.9 18.504 140.397 17.1436 142.845 16.0552C143.117 15.9192 143.661 15.6471 143.661 15.375C143.661 14.2867 140.941 13.8786 140.26 13.8786C135.771 13.8786 133.594 14.9669 134.275 28.299C134.547 32.5162 134.955 37.0056 140.397 37.0056C144.75 37.0056 147.743 34.2848 149.511 30.4756L150.872 31.1558Z" fill="#0D1729"/>
<path d="M168.557 3.67188V13.0587H174.543V14.2831H168.557V33.0568C168.557 34.2812 168.421 35.7776 170.053 35.7776C172.774 35.7776 173.862 31.4243 174.134 29.3837H175.359C174.815 36.8659 170.461 39.0426 163.659 39.0426C157.265 39.0426 155.633 37.2741 155.633 30.336V14.2831H152.504V13.0587C159.17 13.0587 164.339 9.11352 167.741 3.67188H168.557Z" fill="#0D1729"/>
<path d="M195.219 17.0069C195.219 14.5581 194.675 13.7419 192.226 13.7419C191.274 13.7419 190.05 13.8779 190.05 14.286C190.05 14.9662 192.09 15.6464 192.09 17.9591C192.09 21.6323 187.873 22.1764 185.016 22.1764C182.431 22.1764 179.166 21.0881 179.166 17.9591C179.166 15.6464 180.527 12.1094 192.498 12.1094C195.219 12.1094 199.572 12.5175 202.157 13.0617C205.694 13.8779 207.871 15.3744 207.871 19.4556V33.7399C207.871 34.2841 208.143 34.9643 208.823 34.9643C209.776 34.9643 210.32 34.2841 211 33.6039V35.7806C208.959 38.0933 205.694 39.1816 202.701 39.1816C199.709 39.1816 197.26 38.5014 195.899 35.5085C193.179 38.5014 189.369 39.1816 185.56 39.1816C181.479 39.1816 177.262 37.413 177.262 32.6516C177.262 29.1145 179.166 25.4414 186.649 24.4891C188.689 24.217 190.866 24.081 192.906 24.081H195.491V17.0069H195.219ZM195.219 25.3054H193.315C190.05 25.3054 190.458 29.1145 190.458 31.5633C190.458 33.0597 190.322 36.0526 192.498 36.0526C195.491 36.0526 195.219 32.6516 195.219 30.747V25.3054Z" fill="#0D1729"/>
</svg>
