<svg version="1.1" id="Layer_1" xmlns:x="ns_extend;" xmlns:i="ns_ai;" xmlns:graph="ns_graphs;" xmlns="http://www.w3.org/2000/svg" xmlns:xlink="http://www.w3.org/1999/xlink" x="0px" y="0px" viewBox="0 0 299 53" style="enable-background:new 0 0 299 53;" xml:space="preserve">
 <style type="text/css">
  .st0{fill-rule:evenodd;clip-rule:evenodd;fill:#262F3A;}
 </style>
 <metadata>
  <sfw xmlns="ns_sfw;">
   <slices>
   </slices>
   <sliceSourceBounds bottomLeftOrigin="true" height="53" width="299" x="-49.5" y="-8.2">
   </sliceSourceBounds>
  </sfw>
 </metadata>
 <g>
  <path class="st0" d="M224.5,16.9h-7v-1.7h0c0-1.4,1.1-2.5,2.5-2.5c0.4,0,0.7,0.1,1,0.2l2.1-4.7c-1-0.4-2.1-0.7-3.1-0.7
		c-4.2,0-7.6,3.4-7.6,7.6l0,0h0v1.7h0l0,4.2v15.4h5.1V21.1h4.8L224.5,16.9L224.5,16.9z M235.6,32.3c-3.1,0-5.6-2.5-5.6-5.6
		c0-3.1,2.5-5.6,5.6-5.6s5.6,2.5,5.6,5.6C241.2,29.8,238.7,32.3,235.6,32.3z M241.2,18c-1.7-1.1-3.6-1.6-5.6-1.6
		c-5.7-0.1-10.4,4.5-10.5,10.2c-0.1,5.7,4.5,10.4,10.2,10.5c0.1,0,0.2,0,0.2,0c2,0,3.9-0.6,5.6-1.6v1.1h5.1V16.9h-5.1V18z
		 M106.6,16.4c-2.8,0-5.4,1.5-6.7,4l0,0c-1.3-2.5-3.9-4-6.7-4c-2.2,0-4.4,1-5.8,2.7v-2.2h-5.1v19.7h5.1V24l0,0h0v1.2
		c0-2.3,1.9-4.1,4.2-4.1c2.3,0,4.1,1.9,4.1,4.2l0,0v11.3h5.2V25.2c0-2.3,1.9-4.1,4.2-4.1c2.3,0,4.1,1.9,4.1,4.2l0,0v11.3h5.1V24.1
		l0-0.1C114.3,19.8,110.8,16.4,106.6,16.4z M299,24c0-4.2-3.5-7.7-7.7-7.6c-2.8,0-5.3,1.6-6.7,4l0,0c-1.3-2.5-3.9-4-6.7-4
		c-2.2,0-4.4,1-5.8,2.7v-2.2h-5.1v19.7h5.1V24v0l0,0v1.2c0.1-2.2,1.9-4,4.2-4c2.3,0,4.2,1.9,4.2,4.2v11.3h5.2V25.2
		c0.1-2.3,2-4.1,4.3-4.1c2.3,0.1,4.1,1.9,4.1,4.2v11.3h5.1L299,24L299,24z M161.3,23.7c0-0.2,0-0.4,0-0.5c0-0.1,0-0.3-0.1-0.4
		c0-0.3-0.1-0.6-0.2-0.8c0-0.1-0.1-0.3-0.1-0.4c0-0.1-0.1-0.3-0.2-0.4c-0.1-0.1-0.1-0.3-0.2-0.4c-0.1-0.1-0.1-0.2-0.2-0.3l0,0
		c-1.3-2.5-3.9-4-6.7-4c-2.2,0-4.4,1-5.8,2.7v-2.2h-5.1v19.7h5.1V24v0h0v1.2c0-2.3,1.9-4.1,4.2-4.1s4.1,1.9,4.1,4.2l0,0v11.3h5.2V24
		l0,0C161.3,23.9,161.3,23.8,161.3,23.7L161.3,23.7z M128.5,32.3c-3.1,0-5.6-2.5-5.6-5.6c0-3.1,2.5-5.6,5.6-5.6
		c3.1,0,5.6,2.5,5.6,5.6C134.1,29.8,131.6,32.3,128.5,32.3z M128.5,16.4c-5.7,0-10.4,4.6-10.4,10.4s4.6,10.4,10.4,10.4
		c5.7,0,10.4-4.6,10.4-10.4C138.9,21,134.2,16.4,128.5,16.4z M170.3,25c0.7-2.3,2.9-3.9,5.3-3.9c2.4,0,4.6,1.6,5.3,3.9H170.3z
		 M175.6,16.4c-5.7,0-10.4,4.6-10.4,10.4s4.6,10.4,10.4,10.4c4.1,0,7.9-2.5,9.5-6.2l-4.9-0.9c-1.8,2.5-5.3,3.1-7.8,1.4
		c-1-0.7-1.7-1.7-2.1-2.8h15.5c0.1-0.6,0.2-1.1,0.2-1.7c0-0.6-0.1-1.2-0.2-1.7C185,20.1,180.7,16.4,175.6,16.4z M198.1,29.7
		l-5.7-12.8h-5.5l8.4,18.9l-3.1,7h5.5l0.4-0.9l2.8-6.2l8.4-18.9h-5.5C203.8,16.9,198.1,29.7,198.1,29.7z M260.5,16.9
		c-2.1,0-4.2,1.3-5.1,3.1v-3.1h-5.1v19.7h5.1v-9.7c0.1-2.7,2.4-4.9,5.1-4.9h3.3v-5.1L260.5,16.9L260.5,16.9z M60.9,8.6
		c-1.3,0-2.4,1.1-2.4,2.4c0,0,0,0,0,0c0,0.3,0.1,0.6,0.2,0.8l-7.7,7.5L50.3,20l-10.4,10c-0.3-0.1-0.6-0.2-0.9-0.2
		c-0.4,0-0.8,0.1-1.2,0.3l-11.1-8.6c0-0.2,0.1-0.4,0.1-0.6c0-1.3-1.2-2.4-2.5-2.4c-1.3,0-2.3,1.1-2.4,2.4c0,0.3,0.1,0.6,0.2,0.8
		l-18.7,18c-1.2-0.5-2.7,0.1-3.2,1.3c-0.5,1.2,0.1,2.7,1.3,3.2s2.7-0.1,3.2-1.3c0.1-0.3,0.2-0.6,0.2-0.9c0-0.3-0.1-0.6-0.2-0.8
		l3.1-3l5.2-5l10.4-10c0.7,0.3,1.4,0.2,2.1-0.1l11.1,8.6c0,0.2-0.1,0.4-0.1,0.6c0,1.3,1,2.5,2.4,2.5c1.3,0,2.5-1,2.5-2.4
		c0-0.1,0-0.1,0-0.2c0-0.3-0.1-0.6-0.2-0.8l18.7-18c1.2,0.5,2.7-0.1,3.2-1.3s-0.1-2.7-1.3-3.2C61.5,8.7,61.2,8.6,60.9,8.6z">
  </path>
  <path class="st0" d="M51.4,25.4c0,0.4,0.1,0.7,0.1,1.1c0,10.9-8.9,19.7-19.7,19.7c-7.6,0-14.1-4.3-17.4-10.5l-5,4.8
		C13.9,48,22.2,53,31.7,53c14.6,0,26.5-11.9,26.5-26.5c0-2.4-0.3-4.6-0.9-6.8C57.3,19.7,51.4,25.4,51.4,25.4z M12,27.6
		c0-0.4-0.1-0.7-0.1-1.1c0-10.9,8.9-19.7,19.7-19.7c7.6,0,14.1,4.3,17.4,10.5l5-4.8C49.5,5,41.2,0,31.7,0C17,0,5.2,11.9,5.2,26.5
		c0,2.4,0.3,4.6,0.9,6.8L12,27.6z">
  </path>
 </g>
</svg>