<?xml version="1.0" encoding="UTF-8"?>
<svg xmlns="http://www.w3.org/2000/svg" viewBox="0 0 1360 640">
  <defs>
    <style>
      .cls-1 {
        fill: #101112;
      }

      .cls-1, .cls-2, .cls-3 {
        stroke-width: 0px;
      }

      .cls-2 {
        fill: #28ebcf;
      }

      .cls-3 {
        fill: #fff;
      }
    </style>
  </defs>
  <g id="Background">
    <rect id="background" class="cls-1" x="0" width="1360" height="640" rx="160" ry="160"/>
  </g>
  <g id="Logo">
    <g id="Wordmark">
      <path class="cls-3" d="M745.9883017468,420.195486454c-3.5480874409,2.0882017918-7.0840316536,3.1334091381-10.9674289897,3.1334091381-8.2669130918,0-12.3048461056-4.4200271424-12.3048461056-14.9960152462v-67.0069247521l24.7229052863-3.0196673682v-8.7882630334l-24.7229052863,3.0196673682v-20.5357436341l-30.9543416311,3.8966995377v20.4476462166l-11.8319456563,1.4566042808v4.6238991254h4.9188722548c3.806789652,0,6.890666647,3.0748848107,6.9130734015,6.8756305355v59.7993571925c0,22.1095701349,11.9203933712,30.5698888968,28.4542195549,30.5698888968,13.5722241069,0,22.7316241575-7.5690888981,26.8724781983-14.8141506623l-1.1000810267-4.6620375951Z"/>
      <path class="cls-3" d="M839.1039303068,416.6021520435c0,5.5733853455.9599525331,9.6113183593,5.7667910156,9.6113183593,2.8845748106,0,5.3823382812-.7689054687,7.1135548887-1.5378109375l1.1533582031,4.6157914182c-5.7667910156,6.5356964843-13.4582043087,10.380223828-23.4563340081,10.380223828-10.7670351681,0-18.0716371211-6.1536023556-20.5717591974-16.5338261836-5.9601966856,8.0735074218-15.5738736506,16.1493734493-29.4165306937,16.1493734493-15.958326385,0-26.7230029473-9.4202712949-26.7230029473-25.3785976799,0-16.7272318537,11.7269877012-23.456334008,25.7630504143-28.6476252249l29.800983428-10.5736294981v-17.8805900568c0-9.9981296994-3.0779804807-16.9206375238-11.9203933712-16.9206375238-8.2692716976,0-11.7293463069,6.53805509-11.7293463069,15.7672793206,0,10.9562501179-8.1377636633,17.7832699188-16.727205877,14.9960152462-5.3771660841-1.744878296-9.0358445373-6.1536023557-9.0358445373-12.68929884,0-16.7272318537,17.3027316524-24.8007392755,39.6057074573-24.8007392755,25.57200335,0,40.3769715318,8.6513658262,40.3769715318,32.4921525686v50.9506010299ZM808.53404141,417.9465573109v-35.7611801136l-13.6516099787,5.3823382812c-7.4980076231,3.075621875-12.3048461056,6.9225078244-12.3048461056,17.8829486626,0,9.9957710936,4.2289800781,17.1093259824,14.2271097774,17.1093259824,4.4223857481,0,7.4980076231-1.7312166075,11.7293463069-4.6134328124Z"/>
      <path class="cls-3" d="M449.2666269012,277.7274465237c0,5.5733853455.9599525331,9.6113183593,5.7667910156,9.6113183593,2.8845748106,0,5.3823382812-.7689054687,7.1135548887-1.5378109375l1.1533582031,4.6157914182c-5.7667910156,6.5356964843-13.4582043087,10.380223828-23.4563340081,10.380223828-10.7670351681,0-18.0716371211-6.1536023557-20.5717591974-16.5338261837-5.9601966856,8.0735074218-15.5738736506,16.1493734493-29.4165306937,16.1493734493-15.958326385,0-26.7230029473-9.4202712949-26.7230029473-25.3785976799,0-16.7272318537,11.7269877012-23.4563340081,25.7630504143-28.6476252249l29.800983428-10.573629498v-17.8805900568c0-9.9981296994-3.0779804807-16.9206375238-11.9203933712-16.9206375238-8.2692716976,0-11.7293463069,6.53805509-11.7293463069,15.7672793207,0,10.9562501179-8.1377636633,17.7832699188-16.727205877,14.9960152462-5.3771660841-1.744878296-9.0358445373-6.1536023557-9.0358445373-12.68929884,0-16.7272318537,17.3027316524-24.8007392755,39.6057074573-24.8007392755,25.57200335,0,40.3769715318,8.6513658262,40.3769715318,32.4921525686v50.9506010299ZM418.6967380045,279.0718517911v-35.7611801136l-13.6516099787,5.3823382812c-7.4980076231,3.075621875-12.3048461056,6.9225078244-12.3048461056,17.8829486626,0,9.9957710936,4.2289800781,17.1093259823,14.2271097774,17.1093259823,4.4223857481,0,7.4980076231-1.7312166075,11.7293463069-4.6134328124Z"/>
      <path class="cls-3" d="M491.8912452482,416.6021520435c0,5.5733853455.9599525331,9.6113183593,5.7667910156,9.6113183593,2.8845748106,0,5.3823382812-.7689054687,7.1135548887-1.5378109375l1.1533582031,4.6157914182c-5.7667910156,6.5356964843-13.4582043087,10.380223828-23.4563340081,10.380223828-10.7670351681,0-18.0716371211-6.1536023556-20.5717591974-16.5338261836-5.9601966856,8.0735074218-15.5738736506,16.1493734493-29.4165306937,16.1493734493-15.958326385,0-26.7230029473-9.4202712949-26.7230029473-25.3785976799,0-16.7272318537,11.7269877012-23.456334008,25.7630504143-28.6476252249l29.800983428-10.5736294981v-17.8805900568c0-9.9981296994-3.0779804807-16.9206375238-11.9203933712-16.9206375238-8.2692716976,0-11.7293463069,6.53805509-11.7293463069,15.7672793206,0,10.9562501179-8.1377636633,17.7832699188-16.727205877,14.9960152462-5.3771660841-1.744878296-9.0358445373-6.1536023557-9.0358445373-12.68929884,0-16.7272318537,17.3027316524-24.8007392755,39.6057074573-24.8007392755,25.57200335,0,40.3769715318,8.6513658262,40.3769715318,32.4921525686v50.9506010299ZM461.3213563514,417.9465573109v-35.7611801136l-13.6516099787,5.3823382812c-7.4980076231,3.075621875-12.3048461056,6.9225078244-12.3048461056,17.8829486626,0,9.9957710936,4.2289800781,17.1093259824,14.2271097774,17.1093259824,4.4223857481,0,7.4980076231-1.7312166075,11.7293463069-4.6134328124Z"/>
      <path class="cls-3" d="M612.8689549188,277.7274465237c0,5.5733853455.9599525331,9.6113183593,5.7667910156,9.6113183593,2.8845748106,0,5.3823382812-.7689054687,7.1135548887-1.5378109375l1.1533582031,4.6157914182c-5.7667910156,6.5356964843-13.4582043087,10.380223828-23.4563340081,10.380223828-10.7670351681,0-18.0716371211-6.1536023557-20.5717591974-16.5338261837-5.9601966856,8.0735074218-15.5738736506,16.1493734493-29.4165306937,16.1493734493-15.958326385,0-26.7230029473-9.4202712949-26.7230029473-25.3785976799,0-16.7272318537,11.7269877012-23.4563340081,25.7630504143-28.6476252249l29.800983428-10.573629498v-17.8805900568c0-9.9981296994-3.0779804807-16.9206375238-11.9203933712-16.9206375238-8.2692716976,0-11.7293463069,6.53805509-11.7293463069,15.7672793207,0,10.9562501179-8.1377636633,17.7832699188-16.727205877,14.9960152462-5.3771660841-1.744878296-9.0358445373-6.1536023557-9.0358445373-12.68929884,0-16.7272318537,17.3027316524-24.8007392755,39.6057074573-24.8007392755,25.57200335,0,40.3769715318,8.6513658262,40.3769715318,32.4921525686v50.9506010299ZM582.299066022,279.0718517911v-35.7611801136l-13.6516099787,5.3823382812c-7.4980076231,3.075621875-12.3048461056,6.9225078244-12.3048461056,17.8829486626,0,9.9957710936,4.2289800781,17.1093259823,14.2271097774,17.1093259823,4.4223857481,0,7.4980076231-1.7312166075,11.7293463069-4.6134328124Z"/>
      <path class="cls-3" d="M895.3662392976,235.42821132v4.4200271424h-62.1020889323c-.5754997987,25.1875506156,12.68929884,40.1859244675,30.7632945668,40.1859244675,12.8803459043,0,21.7251174005-5.0002441526,28.8386722892-14.8049681819l3.269027545,1.9222636718c-5.0002441525,20.1873064631-19.4184009943,33.6455107717-42.683687938,33.6455107717-28.0697668205,0-48.0660262192-19.8028537287-48.0660262192-50.7571953598,0-33.6455107717,22.3029758049-55.7550809066,49.4127900924-55.7550809066,26.7253615531,0,40.5680185961,17.3027316524,40.5680185961,41.1435183948ZM833.6486030996,231.965778105h34.6078219105c0-18.2650427912-4.2289800781-30.1854361624-15.5738736506-30.1854361624-11.7269877012,0-17.8805900568,12.4982517756-19.0339482599,30.1854361624Z"/>
      <circle class="cls-3" cx="653.0381557882" cy="316.9887975441" r="15.680306281"/>
      <path class="cls-3" d="M674.3197956298,432.0460075531c-3.3055859339-.5830178545-5.7160809923-3.4553573979-5.7160809923-6.8123904193l-.0153309373-86.0419989252-43.0811130039,5.2905904506v4.6240465382h4.9200515576c3.8185826806,0,6.9154320072,3.095375198,6.9166113101,6.9144001172v69.216204902c-.0011793029,3.3555588928-2.4104950584,6.2262768948-5.7160809923,6.8091473364l-6.1205818754,1.0793569482v4.6240465382h54.9342861118v-4.6240465382l-6.1217611783-1.0793569482Z"/>
      <path class="cls-3" d="M700.533339739,194.2846929252c-15.4677363926,0-25.9257942098,8.8801505822-31.9449560387,17.7508667415l-.0075753514-52.0355596667-43.0811130039,5.2896272227v4.6238991254h4.9200515576c3.8197619835,0,6.9166113101,5.4038489291,6.9166113101,9.2242005641l.0075753514,117.9423526872c4.3334645293-3.4748257568,9.787310531-5.4156318033,15.6943813282-5.4156318033,13.6303233161,0,18.7139456028,9.1325213956,34.596850857,9.1325213956,29.5637279269,0,51.5415703082-21.1496176018,51.5415703082-59.5996082503,0-30.3788418324-15.5738736506-46.9126680161-38.6433963186-46.9126680161ZM683.9971549496,292.7234617698c-9.4179126892,0-15.4087712493-6.8225619065-15.4087712493-15.2566411796v-59.9781644704c3.9836850819-2.9234918052,9.0204876233-4.7478733392,14.0643659819-4.7478733392,16.3404205136,0,25.1851920099,14.0360627131,25.1851920099,38.4523492542,0,23.2652869437-8.6513658262,41.5303297349-23.8407867424,41.5303297349Z"/>
      <path class="cls-3" d="M793.6275079942,293.1713020333c-3.3067652367-.5830178545-5.7160809923-3.4553573979-5.7160809923-6.8123904193l-.0240855915-126.358911614-43.0811130039,5.2896272227v4.6238991254h4.9200515576c3.8209412864,0,6.9177906129,3.0971441523,6.9177906129,6.9174957872l.0075753514,109.5295110201c-.0011793029,3.3561485442-2.4104950584,6.2278984362-5.7160809923,6.8107688778l-6.1217611783,1.0793569483v4.6240465382h54.9342861118v-4.6240465382l-6.1205818754-1.0793569483Z"/>
      <path class="cls-3" d="M904.2543719607,432.0459907978c-3.3067652367-.5830178545-5.7160809923-3.4553573979-5.7160809923-6.8123904193l-.0165102401-114.2822680593-43.0811130039,5.2896272227v4.6238991254h4.9200515576c3.8209412864,0,6.9177906129,3.0971441523,6.9177906129,6.9174957872v97.4528674655c-.0011793029,3.3561485443-2.4104950584,6.2278984362-5.7160809923,6.8107688778l-6.1217611783,1.0793569483v4.6240465382h54.9342861118v-4.6240465382l-6.1205818754-1.0793569483Z"/>
      <path class="cls-3" d="M514.4405267607,293.1713020333c-3.3055859339-.5830178545-5.7160809923-3.4553573979-5.7160809923-6.8123904193l-.0240855915-126.358911614-43.0799337011,5.2896272227v4.6238991254h4.9188722548c3.8209412864,0,6.9177906129,3.0971441523,6.9177906129,6.9174957872l.0075753514,109.5295110201c-.0011793029,3.3561485442-2.4116743613,6.2278984362-5.7160809923,6.8107688778l-6.1205818754,1.0793569483v4.6240465382h54.9331068089v-4.6240465382l-6.1205818754-1.0793569483Z"/>
      <path class="cls-3" d="M579.5286105502,333.159398445c-15.7590242006,0-26.3302950929,9.2178734405-32.2916710814,18.2520704597v-19.4117674157l-43.0811130039,5.2919790176v4.6240465382h4.9200515577c3.8197619835,0,6.9166113101,3.0969967394,6.9166113101,6.9173483744v118.6527522165c-.0011793029,3.3561485442-2.4104950584,6.2278984362-5.7160809923,6.8107688778l-6.1205818754,1.0793569483v4.6240465382h54.9342861118v-4.6240465382l-6.1217611783-1.0793569483c-3.3055859339-.5830178545-5.7160809923-3.4553573979-5.7160809923-6.8123904193l-.0153309373-32.4197728552c3.8457066466,3.0710520763,10.5700915895,4.6072414724,18.0622026982,4.6072414724,29.6099363637,0,52.8728647017-21.1496176018,52.8728647017-59.5996082503,0-30.3788418325-15.5738736506-46.9126680161-38.6433963186-46.9126680161ZM562.9924257608,431.5981672896c-11.0359162216,0-15.6611420627-7.5432633706-15.755486292-20.9302672687v-54.0608649265c4.0367537109-3.0716417278,9.2233277163-4.9915467939,14.4110810246-4.9915467939,16.3404205136,0,25.1851920099,14.0360627131,25.1851920099,38.4523492542,0,23.2652869437-8.6513658262,41.5303297349-23.8407867424,41.5303297349Z"/>
      <path class="cls-3" d="M161.7288580018,288.1076703517l-1.7288580018-33.2610580374h9.0358185606c4.6134328124,22.3006171992,17.1116845881,37.4900381154,36.7211326467,37.4900381154,14.6139211175,0,24.0341924125-7.4956490173,24.0341924125-20.1849478573,0-13.2671572444-8.2669130918-19.0339482599-30.5698888968-26.5343144888-24.0341924125-7.6890546874-38.2613021899-19.0339482599-38.2613021899-42.1058295336,0-24.9941449455,19.0339482599-41.5279711292,46.5282152817-41.5279711292,16.918278918,0,31.3387943655,4.4223857481,40.9524713305,11.3425349668v29.0320779593h-8.0758660275c-4.0379330138-19.993900793-14.6115625118-31.9142941642-32.876605303-31.9142941642-12.68929884,0-20.9562119318,7.4956490174-20.9562119318,19.0339482599,0,13.0713929686,7.6914132931,18.2650427912,27.8787197562,25.1851920099,25.7630504143,8.6513658262,41.9124238636,18.6494955256,41.9124238636,44.2214988755,0,28.2631724905-22.8784756036,41.9124238636-50.5661482955,41.9124238636-18.8405425899,0-35.1833217092-5.5757439512-44.0280932055-12.68929884Z"/>
      <path class="cls-3" d="M324.1825450277,279.4563045255c11.5359406368,0,19.9962593987-4.4223857481,26.1475031486-13.4582043087l3.8468859494,2.1156693419c-6.1536023557,22.1095701349-20.9562119318,32.6831996329-41.5303297349,32.6831996329-26.338550213,0-45.9503568773-19.2249953242-45.9503568773-49.9882898911,0-32.3011055043,19.9962593987-56.5239863754,51.1416480942-56.5239863754,19.0339482599,0,33.4544637074,7.4956490173,33.4544637074,23.262928338,0,6.7291021543-3.6991029339,11.4385241036-7.8824343807,13.4582043087-7.3658178716,3.5561601414-15.5738996273-1.0344221385-15.5738996273-10.1915353694,0-10.5712708923-3.269027545-18.6471369198-13.2671572444-18.6471369198-13.2647986386,0-21.1472589961,15.958326385-21.1472589961,36.5300855824,0,24.8007392755,11.3425349668,40.7590656605,30.7609359611,40.7590656605Z"/>
      <path class="cls-3" d="M390.7217787285,315.7110644393l.3738658428,31.2258256683h-8.039262448c-3.4654584353-20.6621776041-15.7567008873-33.6571004743-30.9749053173-33.6571004743-23.203161065,0-35.0410935788,25.241678528-35.0410935788,57.0271561328,0,34.4025385044,13.943212815,60.3896550626,36.7246366992,60.3896550626,15.3767815731,0,27.5648112605-12.9553538812,33.5919662169-38.8889286181h8.5989143845l-2.9909267424,36.0860816248c-11.0301891905,7.4773168561-25.0999347881,11.7779208761-43.0500825537,11.7779208761-38.995257958,0-66.5293148233-25.0535987788-66.5293148233-64.1283134906,0-43.5656921363,33.1242175637-70.862485972,67.2770465089-70.862485972,16.8285502372,0,29.4005388081,3.9244445217,40.0591558112,11.0301891905Z"/>
    </g>
    <g id="Picturemark">
      <path class="cls-2" d="M956.535343013,254.5390833216v.000094476c.0000051404,15.9804461533,6.3482149699,31.3063733537,17.6480968608,42.6062551455l79.7377751332,79.7377744341c34.8868158709,34.8868158709,44.6670124009,47.5626139742,48.6929677567,60.8662036624h37.1314462218c33.2775865246,0,60.25439407-26.9768262354,60.2543710146-60.2544127601v-.0000852126c-.0000110716-15.9804384038-6.3482204497-31.3063564698-17.6480968609-42.6062327819l-79.7377843965-79.7377836974c-34.886815871-34.8868158709-44.667012401-47.5626139742-48.6929677567-60.8662036624h-37.1314369584c-33.2775777911,0-60.2543817189,26.9768126053-60.2543710146,60.2543903964Z"/>
      <path class="cls-2" d="M1114.7873271445,194.2846929252c4.0259553557,13.3035896882,13.8061518857,25.9793877915,48.6929677566,60.8662036624l36.5196666933,36.5196666932.0000126717-73.0393943203c.0000023328-13.4461867431-10.9002850683-24.3464760353-24.3464718114-24.3464760353h-60.8661753102Z"/>
      <path class="cls-2" d="M1041.7479117156,437.7494110396c-4.0259553557-13.3035896882-13.8061518857-25.9793877914-48.6929677566-60.8662036624l-36.5196666933-36.5196666933-.0000126717,73.0393943203c-.0000023328,13.4461867432,10.9002850682,24.3464760353,24.3464718114,24.3464760353h60.8661753102Z"/>
    </g>
  </g>
</svg>