<?xml version="1.0" encoding="UTF-8"?>
<svg id="Livello_1" data-name="Livello 1" xmlns="http://www.w3.org/2000/svg" viewBox="0 0 670.6 127.2">
  <defs>
    <style>
      .cls-1 {
        fill: #fff;
      }

      .cls-2 {
        fill: #b29440;
      }
    </style>
  </defs>
  <g>
    <path class="cls-2" d="M24,87.6c4.5-4.4,9-8.9,13.6-13.3,18.7-18.1,37.5-34.9,56-50.7,0,2-.2,4.3-.4,6.6-.2,2.3-.4,3.8-.8,5.7-.6,2.5-1.3,4.4-1.9,5.7-.7,1.8-1.4,3.3-2.1,4.5-.3.5-1.3,2.4-3.2,4.7-.8,1-1.6,1.9-3.3,3.6-.9,1-1.8,1.9-2.8,2.9-6.2,5.8-12.4,11.6-18.6,17.4-1.6,1.5-3.3,3-5.1,4.6-2.1,1.8-4.2,3.5-6.2,5-1.5.8-3.1,1.6-4.6,2.4l-2.7.8h-18l.1.1Z"/>
    <path class="cls-1" d="M0,52.7v52.5h17.6c18.6,0,21.2-.2,27.2-1.7,8.1-2.1,14.8-5.8,20.6-11.6,6-6,10.4-13.8,12.4-22.3.8-3.2,1.8-11.7,1.4-12.1,0,0-2.4,1.9-5.1,4.4-6,5.7-19.9,18.4-22.1,20.2-2.1,1.9-5.6,3.6-8.8,4.5-2.4.6-3.6.7-13.6.8-3.7,0-7.4,0-11,.1V17.2l4.7.2c7.9.3,11.7,1.1,16.3,3.3,3.4,1.7,6,3.6,9.1,6.9,5.4,5.7,8.7,11.7,10.4,19.8l.2.9.9-.7c1.9-1.5,11-10,12.2-11.4l1.2-1.5-.5-1.9c-1.3-4.4-5.3-10.7-10.4-16-6.8-7.2-14-11.5-23.3-14.2C32.1.5,26.9,0,11.4,0H0v52.7Z"/>
  </g>
  <g>
    <path class="cls-1" d="M98.9,102.4c-4.1-2.3-7.3-5.4-9.5-9.5s-3.3-8.8-3.3-14.2,1.1-10.1,3.3-14.2c2.2-4.1,5.4-7.2,9.5-9.5s8.9-3.4,14.4-3.4,10.3,1.1,14.4,3.4c4.1,2.3,7.3,5.4,9.5,9.5s3.3,8.8,3.3,14.2-1.1,10.1-3.3,14.2c-2.2,4.1-5.4,7.2-9.5,9.5s-9,3.4-14.4,3.4-10.3-1.1-14.4-3.4ZM121.7,88.2c2.1-2.4,3.2-5.6,3.2-9.4s-1.1-7-3.2-9.5c-2.1-2.4-4.9-3.7-8.4-3.7s-6.2,1.2-8.3,3.7c-2.1,2.5-3.2,5.6-3.2,9.5s1.1,7,3.2,9.4c2.1,2.5,4.9,3.7,8.3,3.7s6.3-1.2,8.4-3.7Z"/>
    <path class="cls-1" d="M194.9,58c3.6,4.2,5.5,10,5.5,17.4v29.3h-15.7v-28.3c0-3.4-.8-6-2.4-7.9s-3.8-2.8-6.6-2.8-5.6,1.1-7.4,3.3c-1.9,2.2-2.8,5-2.8,8.5v27.3h-15.7v-51.9h13.6l1,6.1c1.9-2.3,4.3-4.1,7-5.4,2.7-1.3,5.7-1.9,9-1.9,6.2,0,11,2.1,14.7,6.3h-.2Z"/>
    <path class="cls-1" d="M261.8,104.7h-19.5l-15.1-20.6v20.6h-15.6V31.2h15.6v41.3l13.7-19.6h18l-17.9,24.6,20.8,27.3v-.1Z"/>
    <path class="cls-1" d="M301.3,52.8h17l-30.9,74.3h-16.7l9.6-23.2-19.3-51.1h16.9l5.7,16.4,5.4,16.9,5.8-16.9,6.3-16.4h.2Z"/>
    <path class="cls-1" d="M340.1,101.5c-5.7-3.2-10.1-7.7-13.2-13.5-3.1-5.8-4.7-12.5-4.7-20.1s1.6-14.3,4.8-20.1,7.6-10.4,13.3-13.5c5.7-3.2,12.2-4.8,19.5-4.8,10.4,0,19.3,3.8,26.7,11.4l-10.1,10.6c-4.5-4.5-9.9-6.7-16.1-6.7s-7.9,1-11.2,2.9c-3.2,1.9-5.8,4.6-7.5,8.1-1.8,3.5-2.7,7.5-2.7,12.1s.9,8.6,2.7,12.1,4.3,6.2,7.5,8.1c3.2,1.9,7,2.9,11.2,2.9s6.6-.6,9.6-1.9c3.1-1.3,5.8-3.1,8-5.5l9.6,11.2c-7.6,7.6-16.7,11.4-27.4,11.4s-14.2-1.6-19.9-4.8l-.1.1Z"/>
    <path class="cls-1" d="M445.6,52.8v51.9h-13.6l-1-6.2c-4.2,4.8-9.7,7.2-16.4,7.2s-8.7-1.1-12.3-3.4c-3.6-2.3-6.4-5.5-8.4-9.6s-3-8.8-3-14,1-9.9,3-14,4.8-7.3,8.4-9.6c3.6-2.3,7.7-3.4,12.3-3.4s6.4.6,9.2,1.8,5.2,3,7.2,5.3l1-6.1h13.6v.1ZM426.8,88.3c2.2-2.4,3.3-5.6,3.3-9.5s-1.1-7.1-3.3-9.5-5-3.6-8.5-3.6-6.3,1.2-8.5,3.7-3.3,5.6-3.3,9.5,1.1,7,3.3,9.4c2.2,2.5,5,3.7,8.5,3.7s6.3-1.2,8.5-3.6v-.1Z"/>
    <path class="cls-1" d="M500.9,55.2c3.6,2.3,6.4,5.5,8.4,9.6s3,8.8,3,14-1,9.9-3,14-4.8,7.3-8.4,9.6c-3.6,2.3-7.7,3.4-12.3,3.4s-11.3-2-15.3-6.1v27.5h-15.7V52.9h13.6l1,6.1c4.1-4.8,9.6-7.1,16.4-7.1s8.7,1.1,12.3,3.4v-.1ZM493.4,88.3c2.2-2.4,3.3-5.6,3.3-9.5s-1.1-7.1-3.3-9.5-5-3.6-8.5-3.6-6.3,1.2-8.5,3.7-3.3,5.6-3.3,9.5,1.1,7,3.3,9.4c2.2,2.5,5,3.7,8.5,3.7s6.3-1.2,8.5-3.6v-.1Z"/>
    <path class="cls-1" d="M522.5,45.2c-1.7-1.7-2.6-3.8-2.6-6.4s.9-4.8,2.6-6.5c1.7-1.7,3.9-2.5,6.6-2.5s4.9.8,6.6,2.5c1.7,1.7,2.6,3.9,2.6,6.5s-.9,4.7-2.6,6.4c-1.7,1.7-3.9,2.5-6.7,2.5s-5-.8-6.7-2.5h.2ZM521.3,52.8h15.7v51.9h-15.7v-51.9Z"/>
    <path class="cls-1" d="M584.3,102.7c-3.9,2-8.3,3-13.1,3s-9.7-1.6-12.8-4.8-4.7-8.3-4.7-15.4v-19.6h-8.4v-13.1h8.4v-12.9l15.6-1.8v14.7h12.3v13.1h-12.3v19.6c0,2.1.5,3.7,1.5,4.7s2.4,1.5,4.1,1.5,3.8-.5,5.7-1.5l3.7,12.4v.1Z"/>
    <path class="cls-1" d="M643,52.8v51.9h-13.6l-1-6.2c-4.2,4.8-9.7,7.2-16.4,7.2s-8.7-1.1-12.3-3.4c-3.6-2.3-6.4-5.5-8.4-9.6s-3-8.8-3-14,1-9.9,3-14,4.8-7.3,8.4-9.6c3.6-2.3,7.7-3.4,12.3-3.4s6.4.6,9.2,1.8,5.2,3,7.2,5.3l1-6.1h13.6v.1ZM624.2,88.3c2.2-2.4,3.3-5.6,3.3-9.5s-1.1-7.1-3.3-9.5-5-3.6-8.5-3.6-6.3,1.2-8.5,3.7-3.3,5.6-3.3,9.5,1.1,7,3.3,9.4c2.2,2.5,5,3.7,8.5,3.7s6.3-1.2,8.5-3.6v-.1Z"/>
    <path class="cls-1" d="M654.9,31.2h15.7v73.5h-15.7V31.2Z"/>
  </g>
</svg>